<svg width="46" height="42" viewBox="0 0 46 42" fill="none" xmlns="http://www.w3.org/2000/svg">
<path fill-rule="evenodd" clip-rule="evenodd" d="M5.75958 0.166992H15.3621C18.2236 0.166992 20.5433 2.26566 20.5433 4.85449V9.37533C20.5433 11.9642 18.2236 14.0628 15.3621 14.0628H5.75958C2.89807 14.0628 0.578369 11.9642 0.578369 9.37533V4.85449C0.578369 2.26566 2.89807 0.166992 5.75958 0.166992ZM15.3621 10.9378C16.3107 10.9266 17.0767 10.2336 17.0891 9.37533V4.85449C17.0767 3.99624 16.3107 3.30321 15.3621 3.29199H5.75958C4.81093 3.30321 4.04491 3.99624 4.03251 4.85449V9.37533C4.04491 10.2336 4.81093 10.9266 5.75958 10.9378H15.3621Z" fill="#000000"/>
<path fill-rule="evenodd" clip-rule="evenodd" d="M31.8729 0.166992H39.9326C42.7941 0.166992 45.1138 2.26566 45.1138 4.85449V19.0837C45.1138 21.6725 42.7941 23.7712 39.9326 23.7712H31.8729C30.4969 23.7767 29.1754 23.2847 28.2024 22.4044C27.2294 21.5241 26.6855 20.3286 26.6917 19.0837V4.85449C26.6917 2.26566 29.0114 0.166992 31.8729 0.166992ZM39.9326 20.6462C40.8864 20.6462 41.6597 19.9466 41.6597 19.0837V4.85449C41.6473 3.99624 40.8812 3.30321 39.9326 3.29199H31.8729C30.9191 3.29199 30.1459 3.99155 30.1459 4.85449V19.0837C30.1396 19.4998 30.3196 19.9005 30.6448 20.1948C30.9701 20.489 31.413 20.6518 31.8729 20.6462H39.9326Z" fill="#000000"/>
<path fill-rule="evenodd" clip-rule="evenodd" d="M31.8729 29.334H39.9325C42.794 29.334 45.1137 31.4326 45.1137 34.0215V37.1465C45.1137 39.7353 42.794 41.834 39.9325 41.834H31.8729C29.0114 41.834 26.6917 39.7353 26.6917 37.1465V34.0215C26.6917 31.4326 29.0114 29.334 31.8729 29.334ZM39.9325 38.709C40.8812 38.6978 41.6472 38.0047 41.6596 37.1465V34.0215C41.6472 33.1632 40.8812 32.4702 39.9325 32.459H31.8729C30.919 32.459 30.1458 33.1585 30.1458 34.0215V37.1465C30.1458 38.0094 30.919 38.709 31.8729 38.709H39.9325Z" fill="#000000"/>
<path fill-rule="evenodd" clip-rule="evenodd" d="M5.75958 19.6045H15.3621C18.2236 19.6045 20.5433 21.7032 20.5433 24.292V37.1462C20.5433 39.735 18.2236 41.8337 15.3621 41.8337H5.75958C2.89807 41.8337 0.578369 39.735 0.578369 37.1462V24.292C0.578369 21.7032 2.89807 19.6045 5.75958 19.6045ZM15.3621 38.7087C16.3107 38.6974 17.0767 38.0044 17.0891 37.1462V24.292C17.0767 23.4337 16.3107 22.7407 15.3621 22.7295H5.75958C4.81093 22.7407 4.04491 23.4337 4.03251 24.292V37.1462C4.04491 38.0044 4.81093 38.6974 5.75958 38.7087H15.3621Z" fill="#000000"/>
</svg>
