<svg width="56" height="50" viewBox="0 0 56 50" fill="none" xmlns="http://www.w3.org/2000/svg">
<path d="M47.2812 7.20833C47.0078 6.63258 46.3849 6.25685 45.6923 6.25H34.1785C33.2246 6.25 32.4514 6.94956 32.4514 7.8125C32.4514 8.67544 33.2246 9.375 34.1785 9.375H41.5243L28.3525 21.2917C27.679 21.9017 27.679 22.89 28.3525 23.5C29.0268 24.1093 30.1191 24.1093 30.7934 23.5L43.9652 11.5833V18.2292C43.9652 19.0921 44.7384 19.7917 45.6923 19.7917C46.6461 19.7917 47.4193 19.0921 47.4193 18.2292V7.8125C47.4181 7.6048 47.3712 7.39941 47.2812 7.20833Z" fill="#FD0001"/>
<path d="M41.0868 22.917C40.1381 22.9282 39.3721 23.6212 39.3597 24.4795V32.8128C39.3471 36.5475 36.0038 39.5722 31.8757 39.5837H18.0592C13.9312 39.5722 10.5879 36.5475 10.5752 32.8128V20.3128C10.5879 16.5781 13.9312 13.5534 18.0592 13.542H27.2702C28.2241 13.542 28.9973 12.8424 28.9973 11.9795C28.9973 11.1165 28.2241 10.417 27.2702 10.417H18.0592C12.0182 10.417 7.12109 14.8475 7.12109 20.3128V32.8128C7.12109 38.2781 12.0182 42.7087 18.0592 42.7087H31.8757C37.9167 42.7087 42.8139 38.2781 42.8139 32.8128V24.4795C42.8014 23.6212 42.0354 22.9282 41.0868 22.917Z" fill="#FD0001"/>
</svg>
