<svg width="56" height="50" viewBox="0 0 56 50" fill="none" xmlns="http://www.w3.org/2000/svg">
<path fill-rule="evenodd" clip-rule="evenodd" d="M46.9127 7.95795L50.7353 17.5621C51.567 19.4218 51.3614 21.5296 50.1827 23.2288C49.1796 24.5165 47.7283 25.4628 46.0607 25.9163V40.083C46.0244 41.6744 45.2907 43.1875 44.021 44.2894C42.7512 45.3912 41.0496 45.9915 39.2906 45.958H17.046C15.2651 46.0198 13.5313 45.4328 12.2328 44.3285C10.9342 43.2242 10.1795 41.6948 10.1377 40.083V26.1246C8.51643 25.7887 7.05615 24.9931 5.96969 23.8538C4.40747 22.0895 4.02003 19.6996 4.95647 17.6038L8.75603 7.97879C9.65211 5.9261 11.8669 4.59584 14.3057 4.64545H41.3631C43.7981 4.5864 46.0147 5.90944 46.9127 7.95795ZM30.958 42.5621H30.9776V42.6246C30.9707 42.6039 30.9641 42.583 30.958 42.5621ZM30.958 42.5621H25.1056C25.1275 42.403 25.1275 42.2421 25.1056 42.083V37.6871C25.1457 37.0261 25.4838 36.4089 26.041 35.9797C26.5981 35.5505 27.3254 35.3468 28.0531 35.4163C29.5002 35.3203 30.7632 36.2957 30.8855 37.6038V42.0621C30.8855 42.231 30.9099 42.3991 30.958 42.5621ZM39.1755 42.5621H34.3166C34.3386 42.403 34.3386 42.2421 34.3166 42.083V37.6871C34.1916 34.6194 31.3526 32.2184 27.961 32.3121C24.5606 32.2067 21.7073 34.611 21.5824 37.6871V42.1455C21.5605 42.3046 21.5605 42.4655 21.5824 42.6246H16.9308C15.2346 42.6954 13.7939 41.513 13.707 39.9788V26.083C16.7751 25.6639 19.2392 23.5755 19.9014 20.833C20.7124 24.1602 24.0879 26.4529 27.8459 26.2288C31.536 26.3687 34.806 24.095 35.6062 20.833C36.2541 23.7482 38.9228 25.9431 42.1921 26.2496V40.083C42.0513 41.5027 40.7508 42.5984 39.1755 42.6246V42.5621ZM43.781 22.583C45.0018 22.5539 46.1327 21.9958 46.8206 21.083V21.1455C47.2984 20.4171 47.3584 19.525 46.9818 18.7496L43.1823 9.27045C42.8452 8.6505 42.1244 8.27907 41.3631 8.33295H14.3057C13.5732 8.27236 12.8697 8.60689 12.5095 9.18712L8.70997 18.7496C8.21616 19.6338 8.30484 20.6928 8.94025 21.4996C9.51419 22.1377 10.34 22.5486 11.243 22.6455C11.5337 22.6761 11.8274 22.6761 12.1181 22.6455C13.8899 22.733 15.4902 21.6927 15.9637 20.1455C16.315 18.3844 17.9928 17.0933 19.9705 17.0621C21.9695 17.0613 23.6706 18.3792 23.9773 20.1663C24.446 21.7231 26.0671 22.7619 27.8459 22.6455C29.6393 22.7536 31.2601 21.6824 31.6915 20.1038C32.0246 18.3301 33.7099 17.0245 35.6983 16.9996C37.6898 16.9971 39.3883 18.3041 39.7051 20.083C40.1742 21.6512 41.8055 22.6992 43.5968 22.583H43.781Z" fill="#0B1C3F"/>
</svg>
